<?xml version="1.0" encoding="utf-8"?>
<!-- Generator: Adobe Illustrator 21.1.0, SVG Export Plug-In . SVG Version: 6.00 Build 0)  -->
<svg version="1.1" id="Layer_1" xmlns="http://www.w3.org/2000/svg" xmlns:xlink="http://www.w3.org/1999/xlink" x="0px" y="0px"
	 viewBox="0 0 135 25" style="enable-background:new 0 0 135 25;" xml:space="preserve">
<style type="text/css">
	.st0{fill:#5B7DBD;}
</style>
<g>
	<path class="st0" d="M6,7.7v4.8h6.7v2.6H6v6.1H3.1V5.1h10.4v2.6H6z"/>
	<path class="st0" d="M30.9,21.5c-1.9,0-3.4-0.3-4.3-1c-1-0.7-1.6-1.5-1.8-2.3c-0.3-0.9-0.4-1.8-0.4-2.8V5.1h2.8v10.1
		c0,0.5,0,0.9,0.1,1.4c0.2,0.7,0.6,1.2,1.2,1.6c0.6,0.4,1.4,0.6,2.4,0.6c1,0,1.8-0.2,2.4-0.6c0.6-0.4,1-0.9,1.2-1.6
		c0.1-0.4,0.1-0.9,0.1-1.4V5.1h2.9v10.3c0,1-0.1,1.9-0.4,2.8c-0.3,0.9-0.9,1.6-1.8,2.3C34.3,21.1,32.8,21.5,30.9,21.5z"/>
	<path class="st0" d="M49.2,5.1h2.9v13.5h7.7v2.6H49.2V5.1z"/>
	<path class="st0" d="M78.3,5c1.6,0,3.1,0.3,4.5,0.9L83.3,6l-1,2.3l-0.4-0.1c-0.8-0.3-1.4-0.5-2-0.5c-0.5-0.1-1.1-0.1-1.7-0.1
		c-1.1,0-2.1,0.2-3,0.7c-0.8,0.5-1.5,1.2-1.9,2c-0.4,0.9-0.7,1.8-0.7,2.8c0,1.7,0.5,3.1,1.6,4.1c1.1,1,2.5,1.6,4.4,1.6
		c1,0,2.1-0.3,3.5-0.8l0.4-0.2l0.9,2.3l-0.4,0.2c-0.9,0.4-1.8,0.6-2.5,0.8c-0.8,0.2-1.6,0.3-2.4,0.3c-1.7,0-3.2-0.4-4.5-1.1
		c-1.3-0.7-2.3-1.7-2.9-3c-0.7-1.3-1-2.7-1-4.2c0-1.6,0.4-3,1.1-4.2c0.7-1.2,1.7-2.2,3-2.9C75.1,5.3,76.6,5,78.3,5z"/>
	<path class="st0" d="M94.5,5.1h5.3c4.4,0,6.6,1.6,6.6,4.7c0,2.3-1.2,3.8-3.6,4.6l4,6.7h-3.3L99.9,15c-0.3,0-0.7,0-1.3,0
		c-0.3,0-0.7,0-1.3,0v6.3h-2.9V5.1z M97.3,7.7v4.6c0.5,0.1,1,0.1,1.4,0.1c1.5,0,2.6-0.2,3.5-0.5c0.8-0.3,1.2-1,1.2-2
		c0-0.9-0.4-1.5-1.1-1.8c-0.7-0.3-1.7-0.5-2.9-0.5H97.3z"/>
	<path class="st0" d="M124.9,4.9c1.5,0,2.8,0.3,4,1c1.2,0.7,2.2,1.6,2.9,2.8c0.7,1.2,1.1,2.7,1.1,4.3c0,1.6-0.3,3.1-1,4.4
		c-0.7,1.3-1.7,2.3-2.9,3c-1.2,0.7-2.6,1.1-4.1,1.1c-1.4,0-2.7-0.3-3.9-1c-1.2-0.6-2.2-1.6-2.9-2.8c-0.7-1.2-1.1-2.7-1.1-4.5
		c0-1.6,0.4-3.1,1.1-4.3c0.7-1.2,1.7-2.2,2.9-2.9C122,5.2,123.4,4.9,124.9,4.9z M124.8,7.6c-0.9,0-1.7,0.2-2.4,0.6
		c-0.7,0.4-1.3,1-1.8,1.8c-0.5,0.8-0.7,1.8-0.7,3.1c0,1.2,0.2,2.2,0.7,3c0.4,0.9,1.1,1.5,1.8,2c0.8,0.5,1.7,0.7,2.6,0.7
		c0.8,0,1.6-0.2,2.4-0.6c0.8-0.4,1.4-1,1.8-1.8c0.5-0.8,0.7-1.9,0.7-3.1c0-1.3-0.3-2.3-0.8-3.2c-0.5-0.8-1.2-1.5-1.9-1.8
		C126.4,7.8,125.6,7.6,124.8,7.6z"/>
</g>
</svg>
