<?xml version="1.0" encoding="utf-8"?>
<!-- Generator: Adobe Illustrator 21.1.0, SVG Export Plug-In . SVG Version: 6.00 Build 0)  -->
<svg version="1.1" id="Layer_1" xmlns="http://www.w3.org/2000/svg" xmlns:xlink="http://www.w3.org/1999/xlink" x="0px" y="0px"
	 viewBox="0 0 70 70" style="enable-background:new 0 0 70 70;" xml:space="preserve">
<style type="text/css">
	.st0{fill:#C5DDFF;}
	.st1{fill:#62B134;}
	.st2{fill:#5B7DBD;}
	.st3{fill:#FFFFFF;}
</style>
<path class="st0" d="M49.6,56.3H20.6c-5.4,0-9.9-4.4-9.9-9.9L8.3,16.7c0-5.4,4.4-9.9,9.9-9.9H52c5.4,0,9.9,4.4,9.9,9.9l-2.5,29.8
	C59.4,51.9,55,56.3,49.6,56.3z"/>
<g>
	<path class="st1" d="M24.8,62.5L24.8,62.5c-2.5-2.5-2.5-6.6,0-9.1l32.6-32.6c2.5-2.5,6.6-2.5,9.1,0l0,0c2.5,2.5,2.5,6.6,0,9.1
		L33.9,62.5C31.4,65,27.3,65,24.8,62.5z"/>
	<path class="st2" d="M34.4,62.4L34.4,62.4c-2.5,2.5-6.6,2.5-9.1,0L9.5,46.5C7,44,7,40,9.5,37.5l0,0c2.5-2.5,6.6-2.5,9.1,0
		l15.8,15.8C36.9,55.8,36.9,59.9,34.4,62.4z"/>
</g>
<circle class="st3" cx="29.8" cy="57.1" r="3.2"/>
</svg>
