<?xml version="1.0" encoding="utf-8"?>
<!-- Generator: Adobe Illustrator 21.1.0, SVG Export Plug-In . SVG Version: 6.00 Build 0)  -->
<svg version="1.1" id="Layer_1" xmlns="http://www.w3.org/2000/svg" xmlns:xlink="http://www.w3.org/1999/xlink" x="0px" y="0px"
	 viewBox="0 0 70 70" style="enable-background:new 0 0 70 70;" xml:space="preserve">
<style type="text/css">
	.st0{fill:#C5DDFF;}
	.st1{fill:#62B134;}
	.st2{fill:#5B7DBD;}
	.st3{fill:#FFFFFF;}
</style>
<path class="st0" d="M49.6,56.3H20.6c-5.4,0-9.9-4.4-9.9-9.9L8.3,16.7c0-5.4,4.4-9.9,9.9-9.9H52c5.4,0,9.9,4.4,9.9,9.9l-2.5,29.8
	C59.4,51.9,55,56.3,49.6,56.3z"/>
<g>
	<g>
		<path class="st1" d="M56.7,63.5L56.7,63.5c-2.2,0-3.9-1.7-3.9-3.9V42c0-2.2,1.7-3.9,3.9-3.9h0c2.2,0,3.9,1.7,3.9,3.9v17.5
			C60.6,61.7,58.9,63.5,56.7,63.5z"/>
		<path class="st2" d="M69.3,41.5L69.3,41.5c0,2.2-1.7,3.9-3.9,3.9H48c-2.2,0-3.9-1.7-3.9-3.9v0c0-2.2,1.7-3.9,3.9-3.9h17.4
			C67.5,37.6,69.3,39.4,69.3,41.5z"/>
	</g>
	<ellipse transform="matrix(0.7071 -0.7071 0.7071 0.7071 -12.848 52.0242)" class="st3" cx="56.4" cy="41.5" rx="1.9" ry="1.9"/>
	<g>
		<path class="st1" d="M22.8,63.1L22.8,63.1c-2.1,0-3.9-1.7-3.9-3.9V31.3c0-2.1,1.7-3.9,3.9-3.9h0c2.1,0,3.9,1.7,3.9,3.9v27.9
			C26.6,61.3,24.9,63.1,22.8,63.1z"/>
		<path class="st2" d="M40.2,46.1L40.2,46.1c0,2.1-1.7,3.9-3.9,3.9H22.8c-2.1,0-3.9-1.7-3.9-3.9v0c0-2.1,1.7-3.9,3.9-3.9h13.5
			C38.5,42.2,40.2,44,40.2,46.1z"/>
		<path class="st2" d="M44.7,30.8L44.7,30.8c0,2.1-1.7,3.9-3.9,3.9h-18c-2.1,0-3.9-1.7-3.9-3.9v0c0-2.1,1.7-3.9,3.9-3.9h18
			C43,26.9,44.7,28.7,44.7,30.8z"/>
	</g>
	<ellipse transform="matrix(0.7071 -0.7071 0.7071 0.7071 -25.9671 29.6632)" class="st3" cx="22.8" cy="46.2" rx="1.9" ry="1.9"/>
	<ellipse transform="matrix(0.7071 -0.7071 0.7071 0.7071 -14.9612 25.1044)" class="st3" cx="22.8" cy="30.6" rx="1.9" ry="1.9"/>
</g>
</svg>
