<?xml version="1.0" encoding="utf-8"?>
<!-- Generator: Adobe Illustrator 21.1.0, SVG Export Plug-In . SVG Version: 6.00 Build 0)  -->
<svg version="1.1" id="Layer_1" xmlns="http://www.w3.org/2000/svg" xmlns:xlink="http://www.w3.org/1999/xlink" x="0px" y="0px"
	 viewBox="0 0 150 150" style="enable-background:new 0 0 150 150;" xml:space="preserve">
<style type="text/css">
	.st0{fill:#5B7DBD;}
	.st1{fill:#ECECEC;}
	.st2{fill:#62B134;}
	.st3{fill:#FFFFFF;}
</style>
<g>
	<path class="st0" d="M13,129.2v4.8h6.7v2.6H13v6.1h-2.9v-16.1h10.4v2.6H13z"/>
	<path class="st0" d="M37.9,143c-1.9,0-3.4-0.3-4.3-1c-1-0.7-1.6-1.5-1.8-2.3c-0.3-0.9-0.4-1.8-0.4-2.8v-10.3h2.8v10.1
		c0,0.5,0,0.9,0.1,1.4c0.2,0.7,0.6,1.2,1.2,1.6c0.6,0.4,1.4,0.6,2.4,0.6c1,0,1.8-0.2,2.4-0.6c0.6-0.4,1-0.9,1.2-1.6
		c0.1-0.4,0.1-0.9,0.1-1.4v-10.1h2.9v10.3c0,1-0.1,1.9-0.4,2.8c-0.3,0.9-0.9,1.6-1.8,2.3C41.3,142.6,39.8,143,37.9,143z"/>
	<path class="st0" d="M56.2,126.6h2.9v13.5h7.7v2.6H56.2V126.6z"/>
	<path class="st0" d="M85.3,126.5c1.6,0,3.1,0.3,4.5,0.9l0.5,0.2l-1,2.3l-0.4-0.1c-0.8-0.3-1.4-0.5-2-0.5c-0.5-0.1-1.1-0.1-1.7-0.1
		c-1.1,0-2.1,0.2-3,0.7c-0.8,0.5-1.5,1.2-1.9,2c-0.4,0.9-0.7,1.8-0.7,2.8c0,1.7,0.5,3.1,1.6,4.1c1.1,1,2.5,1.6,4.4,1.6
		c1,0,2.1-0.3,3.5-0.8l0.4-0.2l0.9,2.3l-0.4,0.2c-0.9,0.4-1.8,0.6-2.5,0.8c-0.8,0.2-1.6,0.3-2.4,0.3c-1.7,0-3.2-0.4-4.5-1.1
		s-2.3-1.7-2.9-3c-0.7-1.3-1-2.7-1-4.2c0-1.6,0.4-3,1.1-4.2c0.7-1.2,1.7-2.2,3-2.9C82.1,126.8,83.6,126.5,85.3,126.5z"/>
	<path class="st0" d="M101.5,126.6h5.3c4.4,0,6.6,1.6,6.6,4.7c0,2.3-1.2,3.8-3.6,4.6l4,6.7h-3.3l-3.7-6.3c-0.3,0-0.7,0-1.3,0
		c-0.3,0-0.7,0-1.3,0v6.3h-2.9V126.6z M104.3,129.2v4.6c0.5,0.1,1,0.1,1.4,0.1c1.5,0,2.6-0.2,3.5-0.5c0.8-0.3,1.2-1,1.2-2
		c0-0.9-0.4-1.5-1.1-1.8c-0.7-0.3-1.7-0.5-2.9-0.5H104.3z"/>
	<path class="st0" d="M131.9,126.4c1.5,0,2.8,0.3,4,1c1.2,0.7,2.2,1.6,2.9,2.8c0.7,1.2,1.1,2.7,1.1,4.3c0,1.6-0.3,3.1-1,4.4
		c-0.7,1.3-1.7,2.3-2.9,3c-1.2,0.7-2.6,1.1-4.1,1.1c-1.4,0-2.7-0.3-3.9-1c-1.2-0.6-2.2-1.6-2.9-2.8c-0.7-1.2-1.1-2.7-1.1-4.5
		c0-1.6,0.4-3.1,1.1-4.3c0.7-1.2,1.7-2.2,2.9-2.9C129,126.7,130.4,126.4,131.9,126.4z M131.8,129.1c-0.9,0-1.7,0.2-2.4,0.6
		c-0.7,0.4-1.3,1-1.8,1.8c-0.5,0.8-0.7,1.8-0.7,3.1c0,1.2,0.2,2.2,0.7,3c0.4,0.9,1.1,1.5,1.8,2c0.8,0.5,1.7,0.7,2.6,0.7
		c0.8,0,1.6-0.2,2.4-0.6c0.8-0.4,1.4-1,1.8-1.8c0.5-0.8,0.7-1.9,0.7-3.1c0-1.3-0.3-2.3-0.8-3.2c-0.5-0.8-1.2-1.5-1.9-1.8
		C133.4,129.3,132.6,129.1,131.8,129.1z"/>
</g>
<ellipse class="st1" cx="75" cy="105.1" rx="61" ry="2.7"/>
<g>
	<g>
		<path class="st2" d="M10.8,79.1L10.8,79.1c-4.3-4.3-4.3-11.3,0-15.7L67.2,7c4.3-4.3,11.3-4.3,15.7,0l0,0c4.3,4.3,4.3,11.3,0,15.7
			L26.5,79.1C22.1,83.4,15.1,83.4,10.8,79.1z"/>
		<path class="st0" d="M139.1,79L139.1,79c-4.3,4.3-11.3,4.3-15.7,0L67.1,22.6c-4.3-4.3-4.3-11.3,0-15.7l0,0
			c4.3-4.3,11.3-4.3,15.7,0l56.4,56.4C143.5,67.7,143.5,74.7,139.1,79z"/>
		<path class="st0" d="M80.5,80.1L80.5,80.1c-4.3,4.3-11.3,4.3-15.7,0L37.4,52.8c-4.3-4.3-4.3-11.3,0-15.7l0,0
			c4.3-4.3,11.3-4.3,15.7,0l27.4,27.4C84.8,68.8,84.8,75.8,80.5,80.1z"/>
	</g>
	<circle class="st3" cx="45.1" cy="45" r="5.5"/>
	<circle class="st3" cx="74.8" cy="15.3" r="5.5"/>
</g>
</svg>
