<?xml version="1.0" encoding="UTF-8" standalone="no"?>
<svg
   xmlns:dc="http://purl.org/dc/elements/1.1/"
   xmlns:cc="http://creativecommons.org/ns#"
   xmlns:rdf="http://www.w3.org/1999/02/22-rdf-syntax-ns#"
   xmlns:svg="http://www.w3.org/2000/svg"
   xmlns="http://www.w3.org/2000/svg"
   id="svg3906"
   version="1.1"
   viewBox="0 0 219.60222 41.082913"
   height="41.082912mm"
   width="219.60222mm">
  <defs
     id="defs3900" />
  <metadata
     id="metadata3903">
    <rdf:RDF>
      <cc:Work
         rdf:about="">
        <dc:format>image/svg+xml</dc:format>
        <dc:type
           rdf:resource="http://purl.org/dc/dcmitype/StillImage" />
        <dc:title></dc:title>
      </cc:Work>
    </rdf:RDF>
  </metadata>
  <g
     transform="translate(-95.329179,-123.28109)"
     id="layer1">
    <path
       id="path3765"
       style="fill:#ffffff;fill-opacity:0.69411767;fill-rule:nonzero;stroke:none;stroke-width:0.01490582"
       d="m 127.0992,143.38647 c -0.007,-0.01 -0.01,-0.0151 -0.01,-0.0182 -0.01,-0.0166 -0.0125,-0.0352 -0.0169,-0.051 -0.0103,-0.0271 -0.0164,-0.056 -0.0252,-0.0847 -1.2224,-3.91425 -4.06835,-7.56614 -4.06835,-7.56614 v 0 c -0.17278,-0.23854 -0.35538,-0.47853 -0.54885,-0.71996 -2.71043,-3.36582 -4.91465,-6.27835 -5.62736,-8.3592 -0.84409,-2.0645 -0.21662,-3.30762 -0.37412,-3.30618 0.0172,0.0474 -1.67165,2.26272 -2.14828,4.78035 -0.60909,2.62784 0.0461,5.57034 2.07517,8.2906 1.89034,2.53405 3.90208,4.92937 4.90471,7.08773 l -0.007,0.0103 c 0.0471,0.0938 0.0897,0.18777 0.13126,0.28162 0.0251,0.0619 0.0512,0.12378 0.0776,0.18494 0.0181,0.0427 0.0379,0.0817 0.0547,0.1236 0.51934,1.26113 0.80688,2.64142 0.80688,4.08716 0,5.93883 -4.83153,10.76985 -10.76947,10.76985 v 5.46666 c 4.33731,0 8.41437,-1.68865 11.48118,-4.75513 3.06571,-3.06661 4.755,-7.14398 4.755,-11.48138 0,-1.62916 -0.23945,-3.22106 -0.69966,-4.73694" />
    <path
       id="path3767"
       style="fill:#56c263;fill-opacity:1;fill-rule:nonzero;stroke:none;stroke-width:0.01490582"
       d="m 96.026408,143.38647 c 0.003,-0.01 0.0046,-0.0151 0.006,-0.0182 0.006,-0.0166 0.01066,-0.0352 0.01568,-0.051 0.0084,-0.0271 0.01769,-0.056 0.02679,-0.0847 1.221982,-3.91425 4.067962,-7.56615 4.067962,-7.56615 h 1.7e-4 c 0.17306,-0.23853 0.35562,-0.47853 0.54896,-0.71995 2.71064,-3.36582 4.91448,-6.27834 5.62746,-8.35919 0.84395,-2.06451 0.21694,-3.30763 0.37411,-3.30619 -0.0166,0.0474 1.67199,2.26274 2.14785,4.78036 0.60965,2.62784 -0.0453,5.57033 -2.07427,8.29062 -1.89084,2.53402 -3.9031,4.92936 -4.90534,7.08771 l 0.004,0.0103 c -0.0452,0.0938 -0.0887,0.18776 -0.13116,0.28163 -0.0261,0.0619 -0.0518,0.12383 -0.0765,0.18497 -0.019,0.0426 -0.0371,0.0818 -0.0552,0.12362 -0.5196,1.26108 -0.80703,2.6414 -0.80703,4.08712 0,5.93883 4.83117,10.76984 10.76943,10.76984 v 5.46674 c -4.33683,0 -8.41413,-1.68866 -11.48058,-4.75524 -3.066587,-3.06657 -4.755561,-7.14392 -4.755561,-11.4813 0,-1.6292 0.239382,-3.22112 0.699826,-4.73698" />
    <path
       id="path3769"
       style="fill:#ffffff;fill-opacity:0.69411767;fill-rule:nonzero;stroke:none;stroke-width:0.04809525"
       d="m 154.96129,144.2069 c 0,-1.7045 -1.06146,-2.61831 -2.88908,-2.61831 h -2.86504 v 5.30972 h 2.86504 c 1.82762,0 2.88908,-0.93834 2.88908,-2.69141 z m 4.29731,-0.14862 c 0,4.07512 -2.54328,6.44621 -6.96419,6.44621 h -3.08724 v 4.79125 h -4.51951 v -17.31285 h 7.60675 c 4.42091,0 6.96419,2.22297 6.96419,6.07539" />
    <path
       id="path3771"
       style="fill:#ffffff;fill-opacity:0.69411767;fill-rule:nonzero;stroke:none;stroke-width:0.04809525"
       d="m 173.03789,149.76334 v 5.5324 h -4.51951 v -5.40879 l -6.37166,-11.90406 h 4.51903 l 4.09964,7.4336 4.00104,-7.4336 h 4.52 l -6.24854,11.78045" />
    <path
       id="path3773"
       style="fill:#ffffff;fill-opacity:0.69411767;fill-rule:nonzero;stroke:none;stroke-width:0.04809525"
       d="m 187.8291,146.89831 h 3.28443 c 1.82762,0 2.88908,-0.93834 2.88908,-2.69141 0,-1.7045 -1.06146,-2.61831 -2.88908,-2.61831 h -3.28443 z m 5.87773,8.39743 -2.51923,-4.79125 h -3.3585 v 4.79125 h -4.51951 v -17.31285 h 7.77941 c 4.59358,0 7.21141,2.22297 7.21141,6.07539 0,2.61783 -1.08648,4.54452 -3.08724,5.58146 l 3.6057,5.656 h -5.11204" />
    <path
       id="path3775"
       style="fill:#ffffff;fill-opacity:0.69411767;fill-rule:nonzero;stroke:none;stroke-width:0.04809525"
       d="m 207.18937,146.65158 c 0,2.81598 2.19795,4.98892 4.76672,4.98892 2.5933,0 4.66812,-2.17294 4.66812,-4.98892 0,-2.8155 -2.07482,-4.93938 -4.66812,-4.93938 -2.59281,0 -4.76672,2.12388 -4.76672,4.93938 z m 14.07748,-0.025 c 0,5.06347 -4.00056,8.86684 -9.3603,8.86684 -5.35925,0 -9.3603,-3.80337 -9.3603,-8.86684 0,-5.03798 4.00105,-8.76728 9.3603,-8.76728 5.35974,0 9.3603,3.75383 9.3603,8.76728" />
    <path
       id="path3777"
       style="fill:#ffffff;fill-opacity:0.69411767;fill-rule:nonzero;stroke:none;stroke-width:0.04809525"
       d="m 233.90869,141.68719 c -2.66689,0 -4.6917,2.09984 -4.6917,4.86531 0,2.79145 2.02481,4.91534 4.6917,4.91534 1.43227,0 3.08675,-0.79069 4.29683,-2.02577 l 2.64235,2.8405 c -1.85215,1.95123 -4.61763,3.21084 -7.18591,3.21084 -5.21064,0 -9.08808,-3.80337 -9.08808,-8.89089 0,-4.9894 3.97603,-8.74323 9.26074,-8.74323 2.56829,0 5.26018,1.13601 6.98872,2.96411 l -2.61782,3.13629 c -1.13601,-1.38322 -2.79049,-2.2725 -4.29683,-2.2725" />
    <path
       id="path3779"
       style="fill:#ffffff;fill-opacity:0.69411767;fill-rule:nonzero;stroke:none;stroke-width:0.04809525"
       d="m 249.76281,137.98289 v 13.45994 h 7.33404 v 3.85291 h -11.85307 v -17.31285 h 4.51903" />
    <path
       id="path3781"
       style="fill:#ffffff;fill-opacity:0.69411767;fill-rule:nonzero;stroke:none;stroke-width:0.04809525"
       d="m 271.88903,148.77547 -2.37062,-6.17447 -2.42015,6.17447 z m 1.3332,3.45757 h -7.48218 l -1.21007,3.0627 h -4.64264 l 7.43312,-17.31285 h 4.64264 l 7.25997,17.31285 h -4.81529 l -1.18555,-3.0627" />
    <path
       id="path3783"
       style="fill:#ffffff;fill-opacity:0.69411767;fill-rule:nonzero;stroke:none;stroke-width:0.04809525"
       d="m 289.52075,141.46499 c -1.08647,0 -1.80261,0.39534 -1.80261,1.18555 0,2.86503 9.11212,1.23508 9.11212,7.45861 0,3.53212 -3.11128,5.33472 -6.9637,5.33472 -2.88909,0 -5.90177,-1.06194 -7.97612,-2.76643 l 1.75307,-3.53164 c 1.77808,1.53135 4.46997,2.61831 6.27258,2.61831 1.3332,0 2.17295,-0.49394 2.17295,-1.40775 0,-2.9391 -9.11213,-1.16102 -9.11213,-7.28595 0,-3.23537 2.74095,-5.28519 6.91465,-5.28519 2.54328,0 5.11157,0.79021 6.91418,1.95123 l -1.70402,3.58069 c -1.82714,-1.03694 -4.1487,-1.85215 -5.58097,-1.85215" />
    <path
       id="path3785"
       style="fill:#ffffff;fill-opacity:0.69411767;fill-rule:nonzero;stroke:none;stroke-width:0.04809525"
       d="m 314.93139,137.98289 v 3.72931 h -5.18562 v 13.58354 h -4.51904 V 141.7122 h -5.13657 v -3.72931 h 14.84123" />
  </g>
</svg>
