<?xml version="1.0" standalone="no"?>
<!DOCTYPE svg PUBLIC "-//W3C//DTD SVG 20010904//EN"
 "http://www.w3.org/TR/2001/REC-SVG-20010904/DTD/svg10.dtd">
<svg version="1.0" xmlns="http://www.w3.org/2000/svg"
 width="954.000000pt" height="954.000000pt" viewBox="0 0 954.000000 954.000000"
 preserveAspectRatio="xMidYMid meet">
<metadata>
Created by potrace 1.11, written by Peter Selinger 2001-2013
</metadata>
<g transform="translate(0.000000,954.000000) scale(0.100000,-0.100000)"
fill="#000000" stroke="none">
<path d="M4635 9380 c-28 -5 -78 -18 -112 -28 -149 -47 -47 51 -2103 -2006
-1231 -1232 -1930 -1939 -1957 -1979 -89 -129 -129 -282 -120 -451 9 -182 81
-341 211 -471 134 -132 280 -194 477 -203 141 -5 240 16 369 80 84 41 90 47
735 690 358 356 655 648 660 648 5 0 311 -301 680 -669 716 -714 723 -720 878
-776 299 -109 653 -3 831 248 141 200 176 419 105 655 -46 151 -48 153 -780
887 -374 374 -679 685 -679 690 0 6 208 218 462 472 l463 463 1630 -1629 1630
-1629 105 -51 c276 -133 570 -95 801 102 249 215 319 560 174 866 -19 40 -57
101 -84 135 -72 89 -3788 3798 -3841 3833 -71 48 -143 81 -222 103 -83 24
-239 33 -313 20z m255 -426 c70 -31 151 -111 183 -181 17 -39 22 -67 22 -143
0 -82 -4 -103 -26 -151 -36 -76 -86 -129 -161 -170 -60 -32 -68 -34 -163 -34
-89 0 -106 3 -157 28 -77 38 -134 96 -171 175 -28 59 -32 77 -32 152 0 71 5
95 27 141 86 186 294 266 478 183z m-1948 -1946 c279 -128 285 -515 10 -650
-60 -30 -75 -33 -157 -33 -76 0 -98 4 -145 26 -150 71 -230 220 -209 386 17
130 116 245 252 289 65 21 181 13 249 -18z"/>
<path d="M8396 1339 c-152 -22 -313 -149 -380 -300 -33 -75 -46 -146 -46 -247
0 -159 46 -280 144 -377 116 -116 234 -161 396 -152 253 13 441 179 487 430
38 211 -30 418 -174 532 -133 105 -258 139 -427 114z m210 -200 c72 -34 137
-100 170 -172 27 -57 29 -71 29 -177 0 -103 -3 -121 -26 -171 -52 -110 -143
-171 -265 -177 -144 -8 -251 54 -317 182 -27 54 -31 73 -35 162 -6 155 30 248
123 320 88 67 222 81 321 33z"/>
<path d="M5290 1324 c-198 -42 -355 -190 -405 -379 -18 -69 -20 -202 -4 -277
68 -325 393 -483 762 -370 54 16 103 34 109 40 16 16 -41 155 -61 148 -129
-44 -200 -57 -280 -52 -142 9 -263 82 -318 194 -25 52 -28 67 -28 162 1 137
25 202 102 277 42 41 67 57 119 73 81 25 233 27 314 5 30 -8 64 -17 75 -20 17
-5 25 6 51 69 l32 74 -57 21 c-133 50 -284 63 -411 35z"/>
<path d="M500 805 l0 -525 95 0 95 0 0 200 0 200 220 0 220 0 0 85 0 85 -220
0 -220 0 0 155 0 155 245 0 245 0 0 85 0 85 -340 0 -340 0 0 -525z"/>
<path d="M1900 957 c0 -241 4 -394 11 -431 25 -124 120 -219 249 -252 78 -20
276 -14 355 10 110 34 188 108 222 210 14 43 17 113 21 444 l4 392 -96 0 -96
0 0 -347 c0 -199 -5 -367 -11 -392 -14 -62 -41 -96 -103 -126 -61 -30 -163
-36 -237 -14 -56 17 -114 73 -128 124 -7 26 -11 167 -11 398 l0 357 -90 0 -90
0 0 -373z"/>
<path d="M3520 805 l0 -525 350 0 350 0 0 85 0 85 -255 0 -255 0 0 440 0 440
-95 0 -95 0 0 -525z"/>
<path d="M6480 810 l0 -520 95 0 95 0 0 205 0 205 84 0 84 0 119 -202 119
-203 107 -3 c59 -1 107 -1 107 2 0 2 -54 95 -121 206 -66 111 -122 207 -125
214 -3 8 13 20 43 31 70 27 147 108 167 175 46 156 -7 297 -136 358 -92 44
-156 52 -410 52 l-228 0 0 -520z m463 344 c55 -13 78 -24 100 -47 27 -29 29
-35 25 -100 -3 -61 -7 -72 -31 -93 -15 -13 -45 -28 -68 -34 -63 -17 -200 -29
-249 -22 l-45 7 -3 153 -3 152 101 0 c57 0 132 -7 173 -16z"/>
</g>
</svg>
